<?xml version="1.0" standalone="no"?>
<!DOCTYPE svg PUBLIC "-//W3C//DTD SVG 20010904//EN"
 "http://www.w3.org/TR/2001/REC-SVG-20010904/DTD/svg10.dtd">
<svg version="1.0" xmlns="http://www.w3.org/2000/svg"
 width="500.000000pt" height="500.000000pt" viewBox="0 0 500.000000 500.000000"
 preserveAspectRatio="xMidYMid meet">

<g transform="translate(0.000000,500.000000) scale(0.100000,-0.100000)"
fill="#000000" stroke="none">
<path d="M2415 4589 c-312 -17 -671 -131 -944 -302 -426 -265 -748 -690 -886
-1167 -57 -200 -78 -349 -79 -565 -1 -550 194 -1035 573 -1428 619 -641 1568
-809 2366 -418 233 114 403 238 580 422 300 313 480 679 551 1124 24 150 24
430 0 584 -89 584 -407 1088 -884 1408 -283 189 -673 324 -976 339 -55 3 -117
6 -136 7 -19 2 -93 0 -165 -4z m307 -343 c32 -82 57 -151 54 -153 -12 -13 -43
11 -54 41 -13 37 -40 46 -133 46 -42 0 -46 -3 -62 -35 -11 -23 -24 -35 -37
-35 -11 0 -20 3 -20 6 0 4 32 69 72 146 65 125 74 139 96 136 21 -3 32 -22 84
-152z m396 -35 c31 -74 57 -130 59 -125 2 5 15 51 31 103 28 94 36 108 59 93
14 -9 -66 -292 -83 -292 -18 0 -28 18 -79 143 -27 64 -52 117 -56 117 -3 0
-19 -45 -34 -100 -16 -55 -31 -100 -34 -100 -3 0 -12 4 -20 9 -12 8 -8 31 24
143 20 73 39 137 42 141 15 26 40 -11 91 -132z m-1135 104 c8 -18 7 -18 -80
-44 -43 -13 -73 -27 -73 -35 0 -20 21 -76 29 -76 4 0 35 10 70 21 52 18 65 19
72 8 11 -18 4 -23 -61 -44 -30 -10 -59 -21 -63 -25 -9 -8 12 -90 23 -90 3 0
40 11 80 25 88 30 90 30 90 7 0 -15 -21 -25 -102 -50 -56 -17 -103 -31 -104
-29 -1 1 -22 66 -46 144 l-45 141 91 30 c108 36 112 36 119 17z m-435 -192
c-2 -10 -16 -20 -35 -24 -70 -14 -111 -65 -79 -97 14 -14 23 -14 74 -4 32 7
72 12 89 12 58 0 86 -68 50 -123 -34 -51 -167 -91 -167 -49 0 12 9 18 36 20
71 5 127 60 100 97 -10 14 -21 16 -52 11 -128 -21 -139 -20 -162 9 -28 35 -28
65 -1 99 41 53 155 91 147 49z m2103 -18 c32 -17 79 -71 79 -91 0 -24 -34 -15
-51 14 -9 16 -33 37 -55 47 -34 16 -42 17 -78 4 -25 -9 -49 -27 -63 -48 -39
-58 -26 -117 36 -158 50 -34 73 -30 100 17 12 22 27 40 32 40 22 0 19 -33 -6
-76 -27 -46 -28 -46 -71 -41 -145 16 -205 178 -101 275 45 43 115 49 178 17z
m395 -302 c41 -36 74 -72 74 -79 0 -31 -24 -21 -80 32 l-61 58 -32 -32 -31
-32 54 -55 c42 -43 52 -57 42 -67 -10 -10 -24 -1 -67 42 l-55 54 -35 -34 -35
-34 62 -63 c47 -47 59 -66 51 -74 -9 -9 -31 6 -87 57 -42 38 -76 73 -76 77 0
8 190 215 198 216 2 1 37 -29 78 -66z m-2817 29 c92 -68 94 -191 5 -259 -41
-30 -111 -41 -154 -23 -76 31 -116 123 -85 196 21 51 42 73 90 96 48 22 106
18 144 -10z m3079 -333 c1 -8 -27 -34 -64 -59 -37 -25 -85 -57 -106 -73 l-38
-27 44 -67 c43 -64 49 -83 23 -83 -11 1 -117 147 -117 162 0 12 233 169 244
165 6 -2 12 -10 14 -18z m-3433 -72 c97 -67 122 -98 111 -140 -9 -36 -46 -75
-78 -83 -23 -5 -28 -3 -28 14 0 13 9 22 25 26 28 7 51 46 42 69 -5 13 -158
127 -170 127 -3 0 -18 -20 -33 -44 -16 -26 -33 -42 -41 -39 -7 3 -13 9 -13 14
0 17 73 119 84 119 6 -1 51 -29 101 -63z m1933 -209 c191 -508 388 -1020 411
-1065 31 -62 57 -91 99 -110 22 -9 -11 -11 -173 -11 -144 0 -190 2 -165 9 140
38 142 70 24 384 l-79 210 -6 -125 c-8 -147 -19 -201 -61 -289 -68 -142 -184
-216 -328 -209 -64 3 -81 7 -117 33 -78 56 -112 158 -88 261 25 108 120 206
318 328 103 63 157 115 157 149 0 15 -2 27 -4 27 -2 0 -12 3 -20 6 -11 4 -36
-14 -80 -60 -65 -68 -97 -82 -115 -48 -11 20 -12 16 106 329 48 128 91 233 95
233 4 0 15 -24 26 -52z m-552 25 c-4 -4 -21 -12 -39 -18 -69 -22 -76 -84 -77
-721 0 -508 -1 -519 -63 -610 -17 -27 -50 -61 -72 -76 -42 -29 -130 -52 -154
-39 -9 5 0 10 26 14 22 4 52 16 67 28 36 28 72 102 85 174 13 68 14 1052 2
1128 -9 54 -38 100 -67 105 -10 2 -23 8 -28 13 -6 5 58 9 159 9 92 0 165 -3
161 -7z m2181 -425 c16 -13 29 -65 37 -144 l5 -61 -72 -7 c-40 -4 -99 -9 -133
-13 l-61 -5 -6 47 c-4 26 -7 67 -7 91 0 69 47 102 102 73 17 -9 23 -8 30 6 19
33 72 39 105 13z m-3607 -11 l105 -12 -3 -55 c-4 -73 -19 -117 -45 -135 -32
-23 -82 -19 -114 9 -26 23 -28 30 -27 95 l1 71 -39 0 c-31 0 -38 3 -38 20 0
23 5 24 160 7z m94 -418 c10 -52 6 -143 -7 -160 -33 -43 -115 -49 -139 -9 -12
18 -14 17 -55 -16 -35 -28 -43 -32 -43 -18 0 10 16 34 35 54 33 33 35 40 29
77 -6 41 -6 41 -45 36 -25 -4 -39 -2 -39 6 0 6 -1 14 -2 19 -2 5 146 30 248
41 6 0 14 -13 18 -30z m3310 10 c0 -8 -4 -42 -8 -75 l-7 -62 40 -4 c43 -4 50
5 52 67 1 43 12 66 27 56 9 -5 10 -23 4 -68 -8 -57 -7 -62 12 -67 52 -14 64
-8 71 37 15 99 18 107 32 107 13 0 14 -9 9 -52 -17 -138 -17 -138 -40 -138
-25 0 -238 29 -242 33 -3 3 16 158 22 175 5 17 29 9 28 -9z m15 -396 c47 -42
94 -84 104 -93 11 -10 15 -23 11 -34 -6 -16 -17 -17 -118 -11 l-111 6 79 -73
c55 -52 77 -79 75 -92 -2 -11 -7 -19 -12 -19 -4 0 -64 4 -135 8 -70 4 -130 9
-134 11 -4 3 -4 12 -1 20 5 13 22 15 117 9 l111 -6 -83 78 c-107 101 -104 107
49 97 l113 -7 -86 77 c-56 50 -85 82 -81 92 3 8 8 14 10 14 3 0 44 -35 92 -77z
m-3291 13 c41 -22 69 -57 82 -104 32 -122 -115 -219 -215 -140 -34 26 -55 75
-55 125 0 93 108 161 188 119z m230 -406 c18 -11 41 -34 52 -52 24 -40 27 -98
5 -98 -10 0 -15 10 -15 30 0 19 -11 42 -31 65 -27 30 -37 35 -76 35 -87 0
-130 -81 -83 -158 27 -44 43 -48 85 -22 32 20 55 20 55 1 0 -5 -18 -21 -40
-36 -36 -25 -42 -26 -71 -15 -37 16 -78 74 -85 121 -10 70 61 149 135 149 20
0 51 -9 69 -20z m2664 -250 c25 -25 29 -37 26 -65 -4 -33 -2 -35 32 -41 53
-10 64 -18 47 -33 -11 -8 -27 -9 -57 -2 -39 9 -47 7 -76 -16 l-33 -25 26 -34
c20 -27 23 -38 15 -46 -13 -13 -56 24 -144 125 l-51 58 34 36 c76 79 131 93
181 43z m-2375 -62 c28 -29 54 -63 58 -76 15 -52 -38 -112 -100 -112 -22 0
-25 -4 -25 -34 0 -50 -9 -69 -26 -55 -10 8 -12 25 -8 63 6 50 5 54 -26 80
l-33 27 -26 -32 c-23 -27 -28 -29 -39 -16 -11 12 0 30 70 111 46 53 88 96 93
96 6 0 34 -24 62 -52z m2073 -203 c62 -59 59 -150 -7 -204 -48 -40 -101 -48
-150 -24 -104 50 -109 182 -11 244 49 30 128 22 168 -16z m-1735 -73 c-3 -26
-7 -91 -11 -144 -3 -54 -10 -98 -14 -98 -15 0 -24 24 -22 55 3 27 -2 33 -61
64 l-63 34 -31 -22 c-22 -16 -36 -21 -47 -14 -12 7 8 27 102 100 135 105 154
108 147 25z m302 -167 c18 -55 32 -101 33 -103 0 -2 35 33 78 78 102 106 111
101 77 -46 -34 -143 -34 -144 -51 -144 -18 0 -17 18 5 114 l19 78 -67 -66
c-36 -36 -70 -66 -73 -66 -4 0 -19 39 -34 86 -15 47 -30 82 -34 77 -3 -4 -14
-43 -24 -85 -15 -65 -21 -78 -38 -78 -14 0 -18 5 -14 18 3 9 17 68 32 130 33
145 45 146 91 7z m1018 62 c62 -62 53 -162 -19 -206 -37 -23 -148 -53 -157
-43 -10 11 -71 243 -66 249 12 12 107 31 156 32 47 1 57 -3 86 -32z m-443
-151 c33 -68 57 -129 54 -135 -13 -20 -27 -12 -42 24 l-14 35 -70 0 -70 0 -17
-35 c-11 -22 -24 -35 -36 -35 -11 0 -17 5 -14 13 88 211 110 257 128 257 15 0
34 -29 81 -124z"/>
<path d="M2602 4293 c-18 -34 -32 -67 -32 -73 0 -6 26 -10 61 -10 69 0 68 -4
24 95 l-22 50 -31 -62z"/>
<path d="M1115 3813 c-11 -3 -31 -15 -44 -26 -81 -74 -45 -192 63 -204 43 -5
48 -3 86 35 33 33 40 46 40 79 0 48 -29 89 -76 109 -35 15 -36 15 -69 7z"/>
<path d="M2662 2936 c-40 -106 -72 -200 -72 -210 0 -39 32 -28 99 38 38 36 75
66 83 66 45 0 51 -72 11 -120 -14 -17 -76 -69 -138 -115 -168 -126 -213 -187
-223 -301 -11 -137 63 -227 188 -227 163 0 280 166 297 423 8 133 -7 205 -92
431 -42 112 -78 205 -79 206 -1 1 -34 -85 -74 -191z"/>
<path d="M4362 2788 c-7 -7 -12 -40 -12 -80 0 -74 5 -78 69 -61 22 6 23 9 18
67 -7 74 -41 108 -75 74z"/>
<path d="M4242 2758 c-13 -13 -16 -68 -6 -106 6 -19 12 -23 43 -20 34 3 36 5
39 43 4 69 -41 118 -76 83z"/>
<path d="M777 2728 c-8 -62 9 -92 56 -96 35 -3 39 -1 52 32 8 19 15 48 15 64
0 25 -5 30 -31 36 -17 3 -44 6 -59 6 -25 0 -28 -4 -33 -42z"/>
<path d="M827 2370 c-27 -5 -51 -10 -53 -13 -10 -10 16 -102 32 -114 44 -32
94 -1 94 58 0 40 -10 79 -19 78 -3 -1 -28 -5 -54 -9z"/>
<path d="M840 1963 c-41 -37 -48 -86 -20 -131 38 -61 117 -67 164 -11 38 45
35 92 -8 135 -44 44 -92 46 -136 7z"/>
<path d="M3720 1315 l-34 -35 42 -43 43 -42 34 37 c82 88 -2 169 -85 83z"/>
<path d="M1376 1258 l-36 -43 38 -32 c42 -37 81 -42 105 -15 27 29 20 61 -19
98 -19 19 -39 34 -44 34 -5 0 -24 -19 -44 -42z"/>
<path d="M3403 1080 c-39 -24 -53 -48 -53 -95 0 -84 102 -126 169 -69 59 50
46 140 -24 170 -45 18 -54 18 -92 -6z"/>
<path d="M1730 1003 c-25 -19 -49 -38 -54 -43 -5 -5 14 -20 42 -34 l51 -26 6
54 c11 84 7 89 -45 49z"/>
<path d="M2973 908 c-39 -13 -39 -18 -10 -123 26 -89 24 -88 105 -59 63 23 87
80 60 139 -22 49 -83 66 -155 43z"/>
<path d="M2584 788 c-10 -29 -20 -56 -22 -60 -2 -4 21 -8 52 -8 31 0 56 2 56
5 0 10 -55 115 -60 115 -3 0 -15 -23 -26 -52z"/>
</g>
</svg>
